<?xml version="1.0" standalone="no"?>
<!DOCTYPE svg PUBLIC "-//W3C//DTD SVG 20010904//EN"
 "http://www.w3.org/TR/2001/REC-SVG-20010904/DTD/svg10.dtd">
<svg version="1.0" xmlns="http://www.w3.org/2000/svg"
 width="119px" height="27px" viewBox="0 0 238.000000 54.000000"
 preserveAspectRatio="xMidYMid meet">

<g transform="translate(0.000000,54.000000) scale(0.100000,-0.100000)"
fill="#ffffff" stroke="none">
<path d="M162 367 c-61 -62 -112 -118 -112 -124 0 -35 31 -15 128 81 l108 106
104 -105 c58 -58 108 -105 113 -105 4 0 10 7 14 16 4 11 -28 50 -108 130 -62
63 -118 114 -124 114 -6 0 -61 -51 -123 -113z"/>
<path d="M1175 381 c-43 -18 -58 -48 -63 -125 -9 -147 19 -196 110 -196 90 1
113 34 112 165 0 69 -4 96 -18 117 -26 40 -92 58 -141 39z m85 -80 c5 -11 10
-47 10 -81 0 -77 -12 -100 -51 -100 -36 0 -49 27 -49 100 0 73 13 100 49 100
20 0 34 -7 41 -19z"/>
<path d="M1428 383 l-38 -4 0 -160 0 -159 70 0 c81 0 120 16 138 55 17 37 15
50 -13 83 -21 25 -22 31 -10 36 40 15 37 114 -3 135 -23 11 -98 19 -144 14z
m87 -63 c21 -8 26 -16 23 -38 -3 -24 -7 -27 -45 -30 -43 -3 -43 -3 -43 31 0
49 13 57 65 37z m23 -157 c3 -17 -4 -26 -24 -33 -40 -16 -64 -4 -64 31 0 29 1
30 43 27 35 -2 43 -7 45 -25z"/>
<path d="M1822 383 l-43 -4 3 -157 3 -157 83 0 c79 0 85 1 108 28 29 34 31 80
4 107 l-20 20 21 29 c27 36 20 94 -14 115 -26 16 -85 24 -145 19z m83 -63 c21
-8 26 -16 23 -38 -3 -24 -8 -27 -44 -30 l-41 -3 3 38 c1 21 2 39 3 41 2 5 31
1 56 -8z m23 -157 c3 -17 -3 -26 -21 -32 -40 -16 -67 -3 -67 31 0 28 1 29 43
26 35 -2 43 -7 45 -25z"/>
<path d="M2095 381 l-40 -6 0 -155 0 -155 30 0 c30 0 30 1 33 58 l3 58 44 -61
c40 -54 49 -60 80 -60 19 0 35 3 35 6 0 3 -20 32 -45 64 l-46 59 30 16 c37 19
51 43 51 89 0 70 -65 103 -175 87z m96 -70 c33 -27 16 -55 -35 -59 -35 -3 -36
-2 -36 31 0 18 3 37 7 40 12 13 41 7 64 -12z"/>
<path d="M650 220 l0 -160 30 0 30 0 0 160 0 160 -30 0 -30 0 0 -160z"/>
<path d="M775 248 c-9 -169 -7 -182 26 -186 32 -4 39 14 39 113 l0 70 31 -52
c17 -29 37 -53 44 -53 8 0 26 23 42 50 l28 50 5 -87 5 -88 30 0 c28 0 30 2 31
45 1 25 -1 96 -4 158 l-5 112 -26 0 c-22 0 -32 -11 -66 -70 l-39 -71 -18 23
c-10 13 -18 28 -18 33 0 6 -11 27 -25 48 -18 25 -33 37 -49 37 -24 0 -24 -2
-31 -132z"/>
<path d="M1660 220 l0 -160 30 0 30 0 0 160 0 160 -30 0 -30 0 0 -160z"/>
<path d="M192 287 l-82 -82 0 -73 0 -72 65 0 65 0 0 58 c0 63 11 82 47 82 30
0 43 -28 43 -89 l0 -51 60 0 60 0 0 73 0 72 -83 83 c-45 45 -85 82 -87 82 -3
0 -42 -37 -88 -83z"/>
</g>
</svg>
